<?xml version="1.0" encoding="UTF-8"?>
<!DOCTYPE svg PUBLIC "-//W3C//DTD SVG 1.1//EN" "http://www.w3.org/Graphics/SVG/1.1/DTD/svg11.dtd">
<!-- Creator: CorelDRAW 2021 (64-Bit) -->
<svg xmlns="http://www.w3.org/2000/svg" xml:space="preserve" width="1075px" height="571px" version="1.1" style="shape-rendering:geometricPrecision; text-rendering:geometricPrecision; image-rendering:optimizeQuality; fill-rule:evenodd; clip-rule:evenodd"
viewBox="0 0 3953.23 2098.98"
 xmlns:xlink="http://www.w3.org/1999/xlink"
 xmlns:xodm="http://www.corel.com/coreldraw/odm/2003">
 <defs>
  <style type="text/css">
   <![CDATA[
    .str1 {stroke:#148DCC;stroke-width:8.69;stroke-miterlimit:22.9256}
    .str0 {stroke:#1F3469;stroke-width:8.69;stroke-miterlimit:22.9256}
    .fil7 {fill:#148DCC}
    .fil6 {fill:#1F3469}
    .fil0 {fill:#000063;fill-rule:nonzero}
    .fil5 {fill:#000B6A;fill-rule:nonzero}
    .fil3 {fill:#001774;fill-rule:nonzero}
    .fil4 {fill:#0063B4;fill-rule:nonzero}
    .fil1 {fill:#0067BA;fill-rule:nonzero}
    .fil2 {fill:#0091E4;fill-rule:nonzero}
   ]]>
  </style>
 </defs>
 <g id="Capa_x0020_1">
  <metadata id="CorelCorpID_0Corel-Layer"/>
  <g id="_3068233696688">
   <polygon class="fil0" points="717.9,1909.09 717.9,1870.32 846.46,1870.32 846.46,1909.09 "/>
   <path id="_1" class="fil0" d="M1453.31 2003.82l0 -198.7 -36.86 0 0 -29.96 36.86 0 0 -24.24c0,-15.34 1.42,-26.72 4.33,-34.14 4.02,-9.99 10.95,-18.14 21.03,-24.38 10.01,-6.24 24.11,-9.33 42.22,-9.33 11.74,0 24.66,1.33 38.83,3.9l-6.22 33.92c-8.66,-1.39 -16.78,-2.13 -24.5,-2.13 -12.6,0 -21.5,2.5 -26.78,7.49 -5.2,4.99 -7.8,14.32 -7.8,27.98l0 20.93 47.74 0 0 29.96 -47.26 0 0 198.7 -41.59 0z"/>
   <path id="_2" class="fil0" d="M1732.08 1732.42l0 -44.06 41.59 0 0 44.06 -41.59 0zm0 271.4l0 -228.66 41.59 0 0 228.66 -41.59 0z"/>
   <path id="_3" class="fil0" d="M2362.33 2003.82l0 -228.66 37.33 0 0 35.02c9.53,-16.23 18.35,-26.95 26.47,-32.09 8.11,-5.21 17.01,-7.78 26.7,-7.78 14.02,0 28.28,4.11 42.77,12.26l-14.81 35.76c-10.08,-5.28 -20.16,-7.93 -30.24,-7.93 -9.06,0 -17.17,2.57 -24.34,7.64 -7.17,5.07 -12.29,12.11 -15.36,21.15 -4.65,13.73 -6.94,28.78 -6.94,45.16l0 119.47 -41.58 0z"/>
   <polygon id="_4" class="fil0" points="3659.84,1909.09 3659.84,1870.32 3788.39,1870.32 3788.39,1909.09 "/>
   <path id="_5" class="fil1" d="M1022.67 2003.82l0 -228.66 37.33 0 0 35.02c9.53,-16.23 18.35,-26.95 26.47,-32.09 8.11,-5.21 17.01,-7.78 26.7,-7.78 14.02,0 28.28,4.11 42.78,12.26l-14.81 35.76c-10.09,-5.28 -20.17,-7.93 -30.25,-7.93 -9.06,0 -17.17,2.57 -24.34,7.64 -7.17,5.07 -12.29,12.11 -15.36,21.15 -4.65,13.73 -6.94,28.78 -6.94,45.16l0 119.47 -41.58 0z"/>
   <path id="_6" class="fil2" d="M1347.83 1929.8l43.01 5.28c-6.7,23.28 -19.22,41.42 -37.49,54.27 -18.28,12.85 -41.6,19.31 -70.03,19.31 -35.77,0 -64.12,-10.28 -85.07,-30.84 -20.96,-20.48 -31.43,-49.34 -31.43,-86.43 0,-38.32 10.55,-68.14 31.74,-89.28 21.19,-21.23 48.68,-31.8 82.47,-31.8 32.7,0 59.39,10.35 80.12,31.13 20.71,20.78 31.11,50.01 31.11,87.68 0,2.27 -0.08,5.73 -0.24,10.28l-182.67 0c1.58,25.04 9.14,44.28 22.85,57.57 13.62,13.29 30.72,19.97 51.12,19.97 15.2,0 28.2,-3.74 38.91,-11.24 10.79,-7.48 19.3,-19.45 25.6,-35.9zm-136.11 -62.12l136.58 0c-1.81,-19.24 -7.09,-33.63 -15.67,-43.25 -13.16,-14.91 -30.33,-22.4 -51.36,-22.4 -19.06,0 -35.05,5.95 -48.05,17.85 -12.92,11.89 -20.09,27.82 -21.5,47.8z"/>
   <path id="_7" class="fil2" d="M2267.25 1929.8l43 5.28c-6.69,23.28 -19.22,41.42 -37.49,54.27 -18.28,12.85 -41.59,19.31 -70.03,19.31 -35.76,0 -64.11,-10.28 -85.07,-30.84 -20.95,-20.48 -31.43,-49.34 -31.43,-86.43 0,-38.32 10.55,-68.14 31.75,-89.28 21.19,-21.23 48.68,-31.8 82.47,-31.8 32.69,0 59.39,10.35 80.11,31.13 20.71,20.78 31.11,50.01 31.11,87.68 0,2.27 -0.08,5.73 -0.23,10.28l-182.67 0c1.57,25.04 9.13,44.28 22.84,57.57 13.63,13.29 30.72,19.97 51.12,19.97 15.21,0 28.2,-3.74 38.92,-11.24 10.79,-7.48 19.29,-19.45 25.6,-35.9zm-136.12 -62.12l136.59 0c-1.81,-19.24 -7.09,-33.63 -15.68,-43.25 -13.15,-14.91 -30.32,-22.4 -51.35,-22.4 -19.07,0 -35.06,5.95 -48.05,17.85 -12.92,11.89 -20.09,27.82 -21.51,47.8z"/>
   <path id="_8" class="fil2" d="M3266.61 1889.49c0,-42.23 12.61,-73.51 37.89,-93.85 21.04,-16.89 46.8,-25.33 77.12,-25.33 33.64,0 61.2,10.28 82.63,30.84 21.35,20.49 32.06,48.9 32.06,85.1 0,29.38 -4.73,52.43 -14.18,69.25 -9.45,16.81 -23.24,29.88 -41.35,39.21 -18.05,9.33 -37.82,13.95 -59.16,13.95 -34.34,0 -62.07,-10.21 -83.26,-30.69 -21.19,-20.49 -31.75,-50.01 -31.75,-88.48zm42.54 0.07c0,29.23 6.85,51.11 20.56,65.57 13.79,14.54 31.04,21.81 51.91,21.81 20.64,0 37.81,-7.27 51.6,-21.88 13.7,-14.61 20.55,-36.86 20.55,-66.75 0,-28.2 -6.93,-49.56 -20.72,-64.03 -13.78,-14.54 -30.95,-21.81 -51.43,-21.81 -20.87,0 -38.12,7.2 -51.91,21.67 -13.71,14.46 -20.56,36.27 -20.56,65.42z"/>
   <path id="_9" class="fil3" d="M1574.22 2003.82l0 -228.66 37.34 0 0 35.02c9.53,-16.23 18.35,-26.95 26.46,-32.09 8.12,-5.21 17.01,-7.78 26.71,-7.78 14.02,0 28.28,4.11 42.77,12.26l-14.81 35.76c-10.08,-5.28 -20.17,-7.93 -30.25,-7.93 -9.06,0 -17.17,2.57 -24.34,7.64 -7.17,5.07 -12.28,12.11 -15.35,21.15 -4.65,13.73 -6.94,28.78 -6.94,45.16l0 119.47 -41.59 0z"/>
   <path id="_10" class="fil3" d="M2680.4 1975.18c-15.44,12.26 -30.32,20.85 -44.59,25.92 -14.25,5.07 -29.53,7.56 -45.92,7.56 -26.94,0 -47.65,-6.09 -62.15,-18.35 -14.49,-12.2 -21.74,-27.83 -21.74,-46.85 0,-11.17 2.76,-21.37 8.2,-30.62 5.51,-9.25 12.67,-16.6 21.5,-22.18 8.9,-5.58 18.83,-9.84 29.93,-12.7 8.19,-1.98 20.56,-3.89 37.02,-5.8 33.56,-3.67 58.37,-8.15 74.21,-13.29 0.15,-5.29 0.23,-8.67 0.23,-10.06 0,-15.72 -3.94,-26.8 -11.82,-33.27 -10.63,-8.73 -26.46,-13.07 -47.41,-13.07 -19.62,0 -34.11,3.23 -43.4,9.62 -9.38,6.39 -16.23,17.7 -20.72,34l-40.65 -5.29c3.7,-16.23 9.77,-29.37 18.28,-39.36 8.5,-9.98 20.79,-17.62 36.86,-23.05 15.99,-5.36 34.66,-8.08 55.77,-8.08 20.95,0 38.05,2.28 51.2,6.9 13.08,4.63 22.76,10.36 28.91,17.33 6.15,6.98 10.47,15.79 13,26.44 1.34,6.61 2.04,18.5 2.04,35.61l0 51.4c0,35.91 0.87,58.6 2.6,68.22 1.66,9.62 5.12,18.79 10.17,27.61l-43.49 0c-4.17,-8.16 -6.85,-17.7 -8.03,-28.64zm-3.31 -85.92c-15.12,5.73 -37.81,10.58 -68.06,14.54 -17.17,2.28 -29.3,4.85 -36.39,7.72 -7.09,2.86 -12.52,7.04 -16.38,12.48 -3.86,5.51 -5.83,11.6 -5.83,18.35 0,10.21 4.17,18.81 12.6,25.63 8.43,6.83 20.72,10.28 36.87,10.28 15.99,0 30.24,-3.23 42.77,-9.76 12.44,-6.47 21.66,-15.35 27.49,-26.59 4.49,-8.73 6.7,-21.58 6.7,-38.55l0.23 -14.1z"/>
   <path id="_11" class="fil4" d="M1829.44 2022.76l40.17 5.29c1.65,11.6 6.38,20.04 14.1,25.41 10.32,7.12 24.42,10.71 42.3,10.71 19.22,0 34.11,-3.59 44.58,-10.71 10.48,-7.13 17.57,-17.19 21.27,-30.04 2.13,-7.85 3.15,-24.38 3,-49.56 -18.2,19.97 -40.81,29.96 -67.91,29.96 -33.71,0 -59.86,-11.31 -78.29,-34 -18.51,-22.62 -27.73,-49.79 -27.73,-81.43 0,-21.82 4.25,-41.93 12.69,-60.37 8.43,-18.42 20.71,-32.6 36.78,-42.66 16.07,-10.06 34.98,-15.05 56.72,-15.05 28.9,0 52.77,11.02 71.52,33.04l0 -28.19 38.28 0 0 197.45c0,35.61 -3.86,60.8 -11.66,75.63 -7.72,14.84 -20.08,26.58 -36.86,35.17 -16.86,8.6 -37.58,12.93 -62.15,12.93 -29.23,0 -52.78,-6.1 -70.74,-18.36 -18.04,-12.19 -26.7,-30.62 -26.07,-55.22zm34.03 -137.17c0,29.89 6.38,51.7 19.14,65.43 12.84,13.73 28.83,20.63 48.05,20.63 19.14,0 35.13,-6.82 48.13,-20.48 12.92,-13.66 19.38,-35.1 19.38,-64.33 0,-27.9 -6.7,-48.97 -20.02,-63.15 -13.3,-14.17 -29.37,-21.22 -48.12,-21.22 -18.51,0 -34.19,6.98 -47.19,20.93 -12.91,13.95 -19.37,34.66 -19.37,62.19z"/>
   <path id="_12" class="fil4" d="M3179.57 1975.18c-15.44,12.26 -30.32,20.85 -44.58,25.92 -14.26,5.07 -29.54,7.56 -45.92,7.56 -26.95,0 -47.66,-6.09 -62.16,-18.35 -14.49,-12.2 -21.74,-27.83 -21.74,-46.85 0,-11.17 2.76,-21.37 8.2,-30.62 5.51,-9.25 12.67,-16.6 21.5,-22.18 8.9,-5.58 18.83,-9.84 29.93,-12.7 8.19,-1.98 20.56,-3.89 37.02,-5.8 33.57,-3.67 58.38,-8.15 74.21,-13.29 0.15,-5.29 0.23,-8.67 0.23,-10.06 0,-15.72 -3.94,-26.8 -11.81,-33.27 -10.64,-8.73 -26.47,-13.07 -47.42,-13.07 -19.62,0 -34.11,3.23 -43.4,9.62 -9.37,6.39 -16.23,17.7 -20.72,34l-40.65 -5.29c3.7,-16.23 9.77,-29.37 18.28,-39.36 8.5,-9.98 20.79,-17.62 36.87,-23.05 15.98,-5.36 34.65,-8.08 55.76,-8.08 20.95,0 38.05,2.28 51.2,6.9 13.08,4.63 22.76,10.36 28.91,17.33 6.15,6.98 10.47,15.79 13,26.44 1.34,6.61 2.05,18.5 2.05,35.61l0 51.4c0,35.91 0.86,58.6 2.59,68.22 1.66,9.62 5.12,18.79 10.17,27.61l-43.48 0c-4.18,-8.16 -6.86,-17.7 -8.04,-28.64zm-3.31 -85.92c-15.12,5.73 -37.81,10.58 -68.06,14.54 -17.17,2.28 -29.3,4.85 -36.38,7.72 -7.1,2.86 -12.53,7.04 -16.39,12.48 -3.86,5.51 -5.83,11.6 -5.83,18.35 0,10.21 4.17,18.81 12.6,25.63 8.43,6.83 20.72,10.28 36.87,10.28 15.99,0 30.25,-3.23 42.77,-9.76 12.44,-6.47 21.66,-15.35 27.49,-26.59 4.49,-8.73 6.7,-21.58 6.7,-38.55l0.23 -14.1zm-135.17 -141.86c-0.16,-14.76 4.26,-26.51 13.15,-35.32 8.75,-8.74 20.02,-13.14 33.72,-13.14 9.53,0 22.53,3.74 38.91,11.3 9.06,4.19 16.31,6.32 21.67,6.32 4.96,0 8.74,-1.25 11.34,-3.74 2.6,-2.43 4.41,-7.42 5.51,-14.76l29.78 0c-0.47,16.29 -4.89,28.49 -13.23,36.64 -8.35,8.15 -18.91,12.26 -31.83,12.26 -9.61,0 -22.37,-4.04 -38.13,-12.04 -10.31,-5.22 -17.88,-7.79 -22.68,-7.79 -5.2,0 -9.45,1.69 -12.6,5.14 -3.39,3.38 -5.04,8.45 -4.88,15.13l-30.73 0z"/>
   <path id="_13" class="fil5" d="M2943.26 1920.11l40.64 5.28c-4.48,26.07 -15.83,46.41 -34.18,61.17 -18.36,14.76 -40.96,22.1 -67.67,22.1 -33.48,0 -60.41,-10.21 -80.73,-30.62 -20.41,-20.41 -30.57,-49.63 -30.57,-87.67 0,-24.67 4.41,-46.19 13.16,-64.69 8.74,-18.43 22.05,-32.31 40.01,-41.49 17.89,-9.26 37.34,-13.88 58.45,-13.88 26.55,0 48.36,6.24 65.22,18.8 16.94,12.56 27.81,30.4 32.53,53.45l-40.17 5.73c-3.86,-15.34 -10.63,-26.87 -20.48,-34.66 -9.77,-7.71 -21.58,-11.6 -35.45,-11.6 -20.95,0 -37.97,6.98 -51.12,20.93 -13.07,14.02 -19.61,36.05 -19.61,66.3 0,30.7 6.3,52.95 18.9,66.83 12.68,13.87 29.15,20.85 49.39,20.85 16.39,0 30.02,-4.63 40.88,-13.95 10.95,-9.25 17.88,-23.57 20.8,-42.88zm-97.05 121.6l11.98 -37.89 30.72 0 -7.65 22.91c13.16,1.47 23.08,5.21 29.78,11.3 6.7,6.03 10,12.78 10,20.2 0,10.72 -5.58,20.19 -16.77,28.41 -11.11,8.23 -27.96,12.34 -50.42,12.34 -12.67,0 -23.86,0 -33.48,0l2.37 -27.31c10,0.29 17.25,0.43 21.98,0.43 14.57,0 24.89,-1.83 30.8,-5.57 4.49,-2.87 6.77,-6.32 6.77,-10.51 0,-2.56 -0.87,-4.84 -2.68,-6.82 -1.73,-1.99 -4.96,-3.75 -9.69,-5.14 -4.8,-1.4 -12.68,-2.21 -23.71,-2.35z"/>
   <path class="fil6 str0" d="M716.41 564.74c119.67,39.73 217.85,94.45 362.24,137.39l0 -391.21 138.3 0c125.37,0 157.82,5.25 200.58,14.61 57.65,12.62 127,49.7 164.3,85.04 37.47,35.51 66.53,71.88 87.33,135.24 20.83,63.47 40.05,106.19 40.05,224.53 0,118.34 -18.53,155.81 -40.05,224.03 -15.89,50.36 -47.56,87.19 -80.56,117.15 -32.8,29.78 -98.04,62.23 -146.12,81.18 -36.43,14.36 -81.23,23.31 -142.61,23.31l-221.22 0c0,-77.84 0,-151.34 0,-229.18 -117.51,-8.43 -230.74,-42.66 -362.24,-99.46l0 648.25 602.37 0c114.03,0 205,-10.64 273.03,-32.44 90.9,-29.13 184.85,-70.05 238.44,-122.26 70.75,-68.92 168.87,-159.04 207.06,-270.54 31.25,-91.24 55.74,-199.61 55.74,-325.78 0,-143.29 -25.37,-264.2 -58.59,-361.79 -33.36,-98.03 -125.65,-180.58 -189.59,-248.09 -63.96,-67.51 -162.53,-114.82 -251.99,-141.15 -66.62,-19.61 -163.61,-29.22 -290.85,-29.22l-585.62 0c0,186.79 0,373.6 0,560.39z"/>
   <path class="fil7 str1" d="M1619.12 556.62c-516.55,498.44 -872.98,-272.57 -1343.78,71.48 462.22,-507.02 812.93,215.38 1343.78,-71.48z"/>
   <path class="fil7 str1" d="M1376.09 916.87c-516.54,498.43 -872.98,-272.57 -1343.78,71.47 462.23,-507.01 812.94,215.39 1343.78,-71.47z"/>
   <path class="fil6 str0" d="M1499.03 731.02c-516.54,498.44 -872.98,-272.56 -1343.78,71.48 462.23,-507.01 812.94,215.39 1343.78,-71.48z"/>
   <path class="fil6 str0" d="M2354.18 556.29c-3.26,-62.23 -93.42,-179.22 -233.56,-180.81 0,230.03 0,408.16 0,638.2 -2.21,265.73 332.09,493.38 497.23,493.6l411.59 0.57c-2.9,-148.97 -117.86,-223.62 -219.13,-227 -70.01,0 -109.61,0 -179.61,0 -147.23,-0.12 -268.64,-202.07 -271.43,-308.91l-5.09 -415.65z"/>
   <path class="fil7 str1" d="M3273.54 1327.04c-3.26,62.23 -93.43,179.22 -233.56,180.81 0,-230.03 0,-408.17 0,-638.2 -2.21,-265.73 332.09,-493.38 497.23,-493.6l411.59 -0.57c-2.9,148.97 -117.86,223.62 -219.13,227 -70.01,0 -109.61,0 -179.62,0 -147.22,0.12 -268.64,202.07 -271.43,308.91l-5.08 415.65z"/>
  </g>
 </g>
</svg>
